<?xml version="1.0" encoding="utf-8"?>
<!-- Generator: Adobe Illustrator 16.0.0, SVG Export Plug-In . SVG Version: 6.00 Build 0)  -->
<!DOCTYPE svg PUBLIC "-//W3C//DTD SVG 1.1//EN" "http://www.w3.org/Graphics/SVG/1.1/DTD/svg11.dtd">
<svg version="1.1" id="Layer_1" xmlns="http://www.w3.org/2000/svg" xmlns:xlink="http://www.w3.org/1999/xlink" x="0px" y="0px"
	 width="32px" height="32px" viewBox="0 0 32 32" enable-background="new 0 0 32 32" xml:space="preserve">
<path fill="#3FB8AF" d="M0,23.324c8.049,8.805,22.371,8.824,32,0.021L16.063,2.062L0,23.324z"/>
      <g>
        <path fill="none" d="M1.177,21.767L0,23.324c8.049,8.805,22.371,8.824,32,0.021l-0.929-1.241
          C21.812,29.506,8.968,29.383,1.177,21.767z"/>
        <path fill="#FF9E9D" d="M31.071,22.104l-1.285-1.716c-8.652,5.986-19.86,5.861-27.303-0.35l-1.307,1.729
          C8.968,29.383,21.812,29.506,31.071,22.104z"/>
        <path fill="#FF3D7F" d="M29.786,20.388L16.063,2.062L2.483,20.038C9.926,26.249,21.134,26.374,29.786,20.388z"/>
      </g>
      <path fill="#3B3C3B" d="M7.723,20.268c0,0-0.518-0.685-0.325-1.131c0.198-0.459,0.865-0.23,0.695,0.273
        c0.26-0.465,0.875-0.14,0.676,0.319C8.576,20.176,7.723,20.268,7.723,20.268z"/>
      <g>
        <path fill="#3B3C3B" d="M22.882,19.59l-0.031-0.018c-0.107-0.062-0.234-0.203-0.283-0.316c0,0-0.065-0.15-0.065-0.151
          c-0.105-0.244-0.43-0.34-0.724-0.212c-0.296,0.127-0.448,0.428-0.343,0.672c0,0.001,0.066,0.151,0.066,0.151
          c0.048,0.113,0.064,0.304,0.035,0.423l-0.009,0.036c-0.028,0.119,0.04,0.178,0.153,0.128l1.189-0.513
          C22.984,19.741,22.988,19.651,22.882,19.59z"/>
        <path fill="#3B3C3B" d="M22.392,20.313c0.133-0.059,0.21-0.183,0.187-0.292l-0.526,0.228C22.115,20.341,22.259,20.37,22.392,20.313
          z"/>
      </g>
      <path fill="#3B3C3B" d="M16.19,20.882h-0.111c-0.007,0-0.012-0.001-0.017-0.001c-0.007-0.019-0.014-0.036-0.022-0.053
        c0.003-0.005,0.007-0.009,0.011-0.014l0.078-0.078c0.037-0.037,0.037-0.097,0-0.134l-0.134-0.134c-0.037-0.037-0.098-0.037-0.134,0
        l-0.078,0.078c-0.004,0.004-0.009,0.008-0.013,0.011c-0.017-0.008-0.035-0.015-0.054-0.021c0-0.005-0.001-0.011-0.001-0.018v-0.11
        c0-0.052-0.042-0.095-0.094-0.095h-0.19c-0.053,0-0.095,0.043-0.095,0.095v0.11c0,0.007,0,0.013-0.001,0.018
        c-0.018,0.007-0.036,0.014-0.053,0.021c-0.003-0.003-0.008-0.007-0.012-0.011l-0.079-0.078c-0.037-0.037-0.097-0.037-0.133,0
        l-0.135,0.134c-0.037,0.037-0.037,0.097,0,0.134l0.079,0.078c0.005,0.005,0.008,0.009,0.011,0.014
        c-0.007,0.017-0.015,0.034-0.022,0.053c-0.005,0-0.01,0.001-0.016,0.001h-0.111c-0.052,0-0.095,0.043-0.095,0.095v0.189
        c0,0.052,0.042,0.096,0.095,0.096h0.111c0.006,0,0.011,0,0.016,0.001c0.007,0.018,0.015,0.035,0.022,0.054
        c-0.002,0.003-0.006,0.007-0.011,0.012l-0.079,0.079c-0.037,0.036-0.037,0.097,0,0.134l0.135,0.134c0.037,0.037,0.097,0.037,0.133,0
        l0.079-0.078c0.004-0.005,0.009-0.009,0.012-0.011c0.018,0.008,0.036,0.015,0.053,0.021c0.001,0.005,0.001,0.011,0.001,0.017v0.111
        c0,0.052,0.042,0.095,0.095,0.095h0.19c0.052,0,0.094-0.043,0.094-0.095v-0.111c0-0.006,0.001-0.012,0.001-0.017
        c0.019-0.007,0.037-0.014,0.054-0.021c0.004,0.002,0.008,0.006,0.013,0.01l0.078,0.079c0.037,0.037,0.097,0.037,0.134,0l0.134-0.134
        c0.037-0.037,0.037-0.098,0-0.134l-0.078-0.079c-0.004-0.005-0.008-0.009-0.011-0.012c0.008-0.019,0.015-0.036,0.022-0.054
        c0.005-0.001,0.01-0.001,0.017-0.001h0.111c0.052,0,0.095-0.044,0.095-0.096v-0.189C16.285,20.925,16.242,20.882,16.19,20.882z
         M15.526,21.357c-0.157,0-0.284-0.127-0.284-0.285c0-0.156,0.127-0.284,0.284-0.284c0.157,0,0.284,0.128,0.284,0.284
        C15.81,21.23,15.684,21.357,15.526,21.357z"/>
      <path fill="#3B3C3B" d="M12.427,13.894c-0.004-0.001-0.008-0.002-0.011-0.003s-0.008-0.001-0.011-0.002
        c-0.322-0.084-0.654,0.112-0.737,0.432s0.334,1.157,0.334,1.157s0.773-0.527,0.857-0.846C12.942,14.312,12.75,13.979,12.427,13.894z
         M12.183,14.783c-0.165-0.042-0.263-0.21-0.22-0.375c0.042-0.165,0.21-0.263,0.375-0.22c0.164,0.043,0.263,0.211,0.22,0.375
        C12.515,14.728,12.347,14.826,12.183,14.783z"/>
      <path fill="#3B3C3B" d="M16.284,8.177c0.125-0.002,0.191,0.044,0.255,0.102c0.055-0.004,0.124-0.035,0.166-0.056
        c0.013-0.007,0.026-0.015,0.04-0.022c-0.023,0.064-0.056,0.115-0.104,0.153c-0.011,0.008-0.022,0.02-0.036,0.025c0,0,0,0,0,0.001
        c0.07-0.001,0.128-0.033,0.184-0.05v0c-0.029,0.046-0.068,0.093-0.11,0.126c-0.017,0.014-0.033,0.027-0.05,0.041
        c0.001,0.075-0.001,0.146-0.016,0.209c-0.081,0.366-0.294,0.614-0.633,0.72c-0.122,0.039-0.318,0.054-0.457,0.02
        c-0.069-0.018-0.132-0.037-0.191-0.062C15.3,9.37,15.27,9.354,15.241,9.336c-0.009-0.006-0.019-0.012-0.028-0.018
        c0.032,0.001,0.068,0.01,0.103,0.004c0.032-0.005,0.063-0.004,0.092-0.01c0.073-0.016,0.139-0.037,0.194-0.07
        c0.027-0.016,0.068-0.035,0.087-0.058c-0.037,0.001-0.069-0.008-0.096-0.018c-0.104-0.037-0.165-0.105-0.205-0.208
        c0.032,0.003,0.124,0.012,0.145-0.006c-0.04-0.002-0.079-0.025-0.106-0.043c-0.084-0.053-0.153-0.142-0.152-0.279
        c0.011,0.005,0.022,0.011,0.033,0.016c0.02,0.009,0.042,0.014,0.067,0.019c0.011,0.002,0.032,0.009,0.044,0.004c0,0-0.001,0-0.002,0
        c-0.016-0.019-0.042-0.032-0.059-0.052c-0.054-0.068-0.104-0.172-0.072-0.295c0.008-0.032,0.021-0.06,0.034-0.085
        c0,0,0.001,0,0.001,0.001c0.007,0.013,0.021,0.023,0.03,0.034c0.027,0.034,0.062,0.065,0.096,0.092
        c0.117,0.093,0.224,0.15,0.395,0.192c0.043,0.011,0.093,0.019,0.145,0.019c-0.015-0.042-0.01-0.112,0.001-0.153
        c0.029-0.104,0.091-0.178,0.183-0.219c0.022-0.009,0.046-0.016,0.071-0.022C16.258,8.18,16.271,8.179,16.284,8.177z"/>
      <path fill="#3B3C3B" d="M18.589,13.747c-0.388,0-0.704,0.255-0.704,0.571c0,0.17,0.092,0.322,0.236,0.427
        c0.015,0.043,0.008,0.088-0.027,0.148c-0.038,0.068-0.11,0.125-0.209,0.17c0.25-0.018,0.464-0.082,0.587-0.182
        c0.038,0.005,0.077,0.008,0.117,0.008c0.389,0,0.703-0.255,0.703-0.571S18.978,13.747,18.589,13.747"/>
</svg>
