<svg id="svg-source" height="0" version="1.1" xmlns="http://www.w3.org/2000/svg">
    
    <path id="arrow-right-icon" d="M28.551,14.115L15.221,0.778l0,0l0,0c-1.04-1.04-2.735-1.04-3.774,0c-1.039,1.039-1.039,2.73,0,3.773l11.448,11.445
    L11.446,27.445c-1.039,1.041-1.039,2.731,0,3.772s2.734,1.041,3.774,0l13.33-13.336C29.594,16.841,29.594,15.153,28.551,14.115z"/>

    <path id="arrow-left-icon" d="M5.449,17.883L18.78,31.221l0,0l0,0c1.039,1.039,2.734,1.039,3.773,0s1.039-2.73,0-3.773L11.105,16.001L22.554,4.553
    c1.039-1.041,1.039-2.731,0-3.772c-1.039-1.041-2.734-1.041-3.773,0L5.449,14.116C4.406,15.157,4.406,16.846,5.449,17.883z"/>

    <polygon id="arrow-down-icon" points="16,32 32,16 24.002,16 24.002,0 16,0 8,0 8,16 0,16 "/>

    <polygon id="cross-icon" points="20,12 20,0 12,0 12,12 0,12 0,20 12,20 12,32 20,32 20,20 32,20 32,12 "/>

    <polygon id="cross-icon" points="20,12 20,0 12,0 12,12 0,12 0,20 12,20 12,32 20,32 20,20 32,20 32,12 "/>


    <path id="search-icon" d="M31.311,28.111L31.311,28.111l-9.369-9.389c1.298-1.916,2.064-4.229,2.064-6.718
    C24.006,5.375,18.636,0,12.004,0S0,5.375,0,12.006s5.377,12.006,12.008,12.006c2.489,0,4.803-0.772,6.719-2.07l9.391,9.373l0,0
    C28.529,31.752,29.102,32,29.732,32C30.996,32,32,30.982,32,29.721C32,29.089,31.747,28.525,31.311,28.111z M4.005,12.006
    c0-4.42,3.584-8.004,8.005-8.004c4.421,0,8.006,3.583,8.006,8.004s-3.584,8.004-8.006,8.004C7.589,20.01,4.005,16.427,4.005,12.006z
    "/>

    <polygon id="dropup-arrow-icon" points="0,24 16,8 32,24 "/>

    <polygon id="dropdown-arrow-icon" points="32,8 16,24 0,8 "/>

    <polygon id="close-icon" points="22.4,16 32,6.4 25.601,0 16,9.6 6.4,0 0,6.4 9.6,16 0,25.601 6.4,32 16,22.4 25.601,32 32,25.601 
    "/>

    <path id="tick-icon" d="M31.561,8.699l-4.979-4.981c-0.586-0.587-1.547-0.587-2.135,0L14.069,14.089l0,0l-1.075,1.075l-1.705-1.705
    L7.525,9.732c-0.59-0.584-1.55-0.58-2.134,0.01l-4.956,5.004c-0.584,0.59-0.579,1.55,0.01,2.134l11.516,11.404
    c0.59,0.585,1.553,0.583,2.14-0.004l17.458-17.448C32.146,10.247,32.146,9.286,31.561,8.699z"/>

    

    <path id="9e78a293b56b43a69cf374ae4ad9f495" d="M21.766,2.911c2.544-0.045,3.896,0.89,5.189,2.077c1.098-0.095,2.524-0.713,3.363-1.144
    c0.272-0.151,0.546-0.3,0.817-0.45c-0.479,1.308-1.13,2.331-2.13,3.106c-0.223,0.173-0.443,0.406-0.722,0.514
    c0,0.006,0,0.011,0,0.017c1.425-0.014,2.6-0.661,3.716-1.014c0,0.006,0,0.011,0,0.017c-0.585,0.939-1.38,1.892-2.226,2.574
    c-0.342,0.274-0.683,0.548-1.025,0.821c0.019,1.521-0.021,2.971-0.304,4.25c-1.641,7.429-5.984,12.472-12.861,14.632
    c-2.47,0.775-6.46,1.094-9.29,0.387c-1.402-0.352-2.671-0.747-3.86-1.271c-0.66-0.291-1.272-0.606-1.857-0.966
    C0.384,26.343,0.193,26.224,0,26.105c0.64,0.021,1.385,0.197,2.098,0.081c0.646-0.104,1.278-0.078,1.874-0.209
    c1.486-0.329,2.804-0.763,3.94-1.433c0.551-0.324,1.386-0.706,1.778-1.175c-0.739,0.013-1.406-0.159-1.955-0.354
    c-2.124-0.758-3.361-2.146-4.165-4.235c0.645,0.071,2.498,0.24,2.932-0.127c-0.81-0.046-1.59-0.519-2.146-0.87
    c-1.709-1.077-3.101-2.886-3.091-5.666c0.223,0.107,0.448,0.215,0.672,0.323c0.429,0.182,0.866,0.278,1.377,0.386
    c0.216,0.044,0.648,0.173,0.898,0.08c-0.011,0-0.023,0-0.033,0c-0.331-0.388-0.87-0.646-1.202-1.062
    c-1.095-1.372-2.124-3.486-1.473-6.003C1.671,5.202,1.932,4.638,2.21,4.119c0.011,0.004,0.021,0.01,0.031,0.016
    c0.127,0.27,0.412,0.467,0.594,0.693c0.56,0.699,1.25,1.328,1.955,1.883c2.396,1.889,4.555,3.051,8.022,3.911
    c0.881,0.217,1.896,0.385,2.947,0.386c-0.295-0.866-0.2-2.268,0.033-3.106c0.584-2.107,1.853-3.627,3.716-4.443
    c0.443-0.194,0.938-0.335,1.457-0.45C21.232,2.975,21.499,2.944,21.766,2.911z"/>

    <path id="twitter-icon" d="M21.766,2.911c2.544-0.045,3.896,0.89,5.189,2.077c1.098-0.095,2.524-0.713,3.363-1.144
    c0.272-0.151,0.546-0.3,0.817-0.45c-0.479,1.308-1.13,2.331-2.13,3.106c-0.223,0.173-0.443,0.406-0.722,0.514
    c0,0.006,0,0.011,0,0.017c1.425-0.014,2.6-0.661,3.716-1.014c0,0.006,0,0.011,0,0.017c-0.585,0.939-1.38,1.892-2.226,2.574
    c-0.342,0.274-0.683,0.548-1.025,0.821c0.019,1.521-0.021,2.971-0.304,4.25c-1.641,7.429-5.984,12.472-12.861,14.632
    c-2.47,0.775-6.46,1.094-9.29,0.387c-1.402-0.352-2.671-0.747-3.86-1.271c-0.66-0.291-1.272-0.606-1.857-0.966
    C0.384,26.343,0.193,26.224,0,26.105c0.64,0.021,1.385,0.197,2.098,0.081c0.646-0.104,1.278-0.078,1.874-0.209
    c1.486-0.329,2.804-0.763,3.94-1.433c0.551-0.324,1.386-0.706,1.778-1.175c-0.739,0.013-1.406-0.159-1.955-0.354
    c-2.124-0.758-3.361-2.146-4.165-4.235c0.645,0.071,2.498,0.24,2.932-0.127c-0.81-0.046-1.59-0.519-2.146-0.87
    c-1.709-1.077-3.101-2.886-3.091-5.666c0.223,0.107,0.448,0.215,0.672,0.323c0.429,0.182,0.866,0.278,1.377,0.386
    c0.216,0.044,0.648,0.173,0.898,0.08c-0.011,0-0.023,0-0.033,0c-0.331-0.388-0.87-0.646-1.202-1.062
    c-1.095-1.372-2.124-3.486-1.473-6.003C1.671,5.202,1.932,4.638,2.21,4.119c0.011,0.004,0.021,0.01,0.031,0.016
    c0.127,0.27,0.412,0.467,0.594,0.693c0.56,0.699,1.25,1.328,1.955,1.883c2.396,1.889,4.555,3.051,8.022,3.911
    c0.881,0.217,1.896,0.385,2.947,0.386c-0.295-0.866-0.2-2.268,0.033-3.106c0.584-2.107,1.853-3.627,3.716-4.443
    c0.443-0.194,0.938-0.335,1.457-0.45C21.232,2.975,21.499,2.944,21.766,2.911z"/>




    <g id="b5282d4ecdc7ae3d0799023622c560a5">
        <line fill="none" x1="1.905" y1="20.438" x2="4.992" y2="16.456"/>
    <g>
        <circle cx="12.76" cy="12.806" r="0.29"/>
        <circle cx="15.839" cy="19.017" r="0.268"/>
        <path d="M29.06,19.164L16.174,1.792L3.021,19.04c3.612,2.749,8.115,4.39,13.003,4.411
            C20.91,23.474,25.424,21.876,29.06,19.164z M9.468,17.749c-0.182,0.422-0.986,0.508-0.986,0.508s-0.488-0.646-0.306-1.066
            c0.187-0.432,0.814-0.217,0.655,0.259C9.076,17.011,9.655,17.317,9.468,17.749z M13.323,12.943
            c-0.078,0.301-0.808,0.798-0.808,0.798s-0.393-0.79-0.314-1.09c0.079-0.301,0.391-0.487,0.695-0.407
            c0.003,0.001,0.007,0.001,0.01,0.002c0.004,0.001,0.006,0.002,0.01,0.003C13.221,12.328,13.402,12.643,13.323,12.943z
             M16.554,19.104c0,0.049-0.04,0.09-0.089,0.09h-0.105c-0.006,0-0.011,0-0.016,0.001c-0.006,0.017-0.013,0.033-0.021,0.05
            c0.003,0.004,0.006,0.008,0.011,0.012l0.073,0.074c0.035,0.035,0.035,0.092,0,0.126l-0.126,0.127
            c-0.035,0.034-0.092,0.034-0.127,0L16.08,19.51c-0.004-0.004-0.008-0.008-0.012-0.011c-0.016,0.009-0.033,0.016-0.05,0.021
            c-0.001,0.005-0.001,0.01-0.001,0.016v0.104c0,0.05-0.041,0.09-0.089,0.09H15.75c-0.049,0-0.089-0.04-0.089-0.09v-0.104
            c0-0.006,0-0.011-0.001-0.016c-0.017-0.006-0.034-0.013-0.05-0.021c-0.004,0.002-0.008,0.006-0.012,0.01l-0.074,0.074
            c-0.035,0.034-0.092,0.034-0.126,0l-0.126-0.127c-0.035-0.034-0.035-0.091,0-0.126l0.074-0.074
            c0.004-0.004,0.007-0.008,0.01-0.012c-0.008-0.017-0.015-0.033-0.021-0.05c-0.005-0.001-0.01-0.002-0.016-0.002h-0.104
            c-0.049,0-0.089-0.04-0.089-0.089v-0.179c0-0.049,0.041-0.09,0.089-0.09h0.104c0.006,0,0.011,0,0.016-0.001
            c0.006-0.017,0.013-0.033,0.021-0.05c-0.003-0.004-0.006-0.008-0.01-0.012l-0.074-0.074c-0.035-0.035-0.035-0.092,0-0.126
            l0.126-0.127c0.035-0.035,0.092-0.035,0.126,0l0.074,0.074c0.004,0.004,0.008,0.007,0.012,0.011
            c0.016-0.009,0.033-0.016,0.05-0.021c0-0.005,0.001-0.01,0.001-0.016V18.39c0-0.05,0.04-0.09,0.089-0.09h0.179
            c0.049,0,0.089,0.04,0.089,0.09v0.104c0,0.006,0,0.011,0.001,0.016c0.017,0.006,0.034,0.013,0.05,0.021
            c0.004-0.003,0.008-0.006,0.012-0.01l0.074-0.074c0.035-0.035,0.092-0.035,0.127,0l0.126,0.127c0.035,0.034,0.035,0.091,0,0.126
            l-0.073,0.074c-0.005,0.004-0.008,0.008-0.011,0.012c0.008,0.017,0.015,0.033,0.021,0.05c0.005,0.001,0.01,0.001,0.016,0.001
            h0.105c0.049,0,0.089,0.041,0.089,0.09V19.104z M17.027,7.004c-0.026,0.043-0.063,0.087-0.103,0.119
            c-0.016,0.013-0.032,0.026-0.048,0.038c0.001,0.071-0.001,0.138-0.014,0.197c-0.076,0.345-0.278,0.579-0.598,0.679
            c-0.113,0.036-0.299,0.051-0.431,0.018c-0.065-0.016-0.124-0.035-0.179-0.059c-0.031-0.014-0.059-0.028-0.086-0.045
            c-0.009-0.006-0.018-0.011-0.027-0.017c0.03,0.001,0.064,0.009,0.098,0.004c0.03-0.005,0.059-0.004,0.087-0.01
            c0.069-0.016,0.13-0.036,0.183-0.066c0.026-0.015,0.064-0.033,0.083-0.055c-0.034,0-0.065-0.007-0.091-0.017
            c-0.098-0.035-0.156-0.1-0.193-0.196c0.03,0.003,0.116,0.011,0.136-0.006c-0.038-0.002-0.074-0.024-0.1-0.041
            c-0.079-0.05-0.144-0.134-0.143-0.263c0.01,0.005,0.021,0.01,0.031,0.015c0.02,0.008,0.04,0.013,0.064,0.018
            c0.01,0.002,0.03,0.008,0.042,0.004c0,0-0.001,0-0.001,0c-0.016-0.018-0.041-0.03-0.056-0.049
            c-0.051-0.063-0.099-0.162-0.068-0.278c0.007-0.03,0.02-0.056,0.033-0.08c0,0,0,0,0.001,0.001
            c0.006,0.012,0.019,0.021,0.027,0.032c0.026,0.033,0.058,0.062,0.091,0.087c0.111,0.088,0.211,0.142,0.372,0.182
            c0.041,0.01,0.088,0.018,0.137,0.018c-0.014-0.04-0.009-0.105,0.001-0.144c0.027-0.098,0.086-0.168,0.173-0.206
            c0.021-0.009,0.044-0.015,0.067-0.021c0.013-0.001,0.025-0.003,0.037-0.004c0.118-0.002,0.182,0.042,0.241,0.097
            c0.051-0.005,0.117-0.033,0.156-0.053c0.013-0.007,0.025-0.014,0.038-0.021c-0.022,0.061-0.053,0.108-0.1,0.144
            c-0.01,0.008-0.021,0.019-0.033,0.024c0,0,0,0,0,0.001C16.922,7.05,16.977,7.02,17.027,7.004
            C17.027,7.004,17.027,7.004,17.027,7.004z M18.726,13.188c-0.037,0-0.074-0.002-0.11-0.007c-0.115,0.094-0.317,0.155-0.553,0.171
            c0.092-0.042,0.161-0.096,0.197-0.16c0.032-0.057,0.039-0.099,0.025-0.14c-0.137-0.099-0.223-0.243-0.223-0.402
            c0-0.298,0.298-0.539,0.663-0.539c0.367,0,0.663,0.241,0.663,0.539C19.389,12.946,19.092,13.188,18.726,13.188z M22.311,18.3
            c-0.125,0.055-0.26,0.026-0.32-0.061l0.497-0.214C22.509,18.128,22.437,18.246,22.311,18.3z M22.763,17.807l-1.121,0.484
            c-0.106,0.046-0.171-0.009-0.144-0.122l0.008-0.033c0.027-0.112,0.012-0.292-0.034-0.398l-0.062-0.143
            c-0.1-0.23,0.045-0.515,0.322-0.635s0.583-0.029,0.683,0.201l0.062,0.142c0.046,0.107,0.166,0.241,0.268,0.299l0.029,0.017
            C22.874,17.676,22.869,17.761,22.763,17.807z"/>
    </g>
    <path d="M16.004,25.156c-5.327,0-10.287-1.566-14.448-4.262L0,22.954c4.454,3.357,9.997,5.349,16.004,5.349
        c6.004,0,11.543-1.988,15.996-5.342l-1.607-2.027C26.243,23.604,21.306,25.156,16.004,25.156z"/>
    </g>


</svg>